<svg aria-hidden="true" style="width:0;height:0;position:absolute;overflow:hidden" xmlns="http://www.w3.org/2000/svg"><defs><symbol id="icon-logo-filmoteka" viewBox="0 0 32 32"><path fill="none" stroke="#fff" style="stroke:var(--color1,#fff)" stroke-linejoin="round" stroke-linecap="round" stroke-width="2.587" d="M25.709 2.594H5.475a2.82 2.82 0 0 0-2.82 2.82v20.234a2.82 2.82 0 0 0 2.82 2.82h20.234a2.82 2.82 0 0 0 2.82-2.82V5.414a2.82 2.82 0 0 0-2.82-2.82zM9.123 2.594v25.875M22.061 2.594v25.875M2.654 15.531h25.875M2.654 9.063h6.469M2.667 21.333h6.469M22.061 22h6.469M22.061 9.063h6.469"/></symbol><symbol id="icon-search" viewBox="0 0 32 32"><path stroke-linejoin="round" stroke-linecap="round" stroke-width="2.667" d="M14.667 25.333c5.891 0 10.667-4.776 10.667-10.667S20.558 3.999 14.667 3.999 4 8.775 4 14.666s4.776 10.667 10.667 10.667zM28 28.001l-5.8-5.8"/></symbol></defs></svg>